<svg id="Layer_1" data-name="Layer 1" xmlns="http://www.w3.org/2000/svg" xmlns:xlink="http://www.w3.org/1999/xlink" viewBox="0 0 49 49"><defs><style>.cls-1{fill:#fdf6b4;}.cls-2,.cls-4,.cls-5{fill:#333;}.cls-3{fill:url(#linear-gradient);}.cls-4,.cls-5{fill-rule:evenodd;}.cls-5{stroke:#333;stroke-linecap:round;stroke-miterlimit:10;stroke-width:0.5px;}</style><linearGradient id="linear-gradient" x1="30.11" y1="-2.24" x2="30.11" y2="10.66" gradientTransform="matrix(1, 0, 0, -1, 0, 50)" gradientUnits="userSpaceOnUse"><stop offset="0" stop-color="#fdf6b4"/><stop offset="1" stop-color="#fdf6b4" stop-opacity="0"/></linearGradient></defs><path class="cls-1" d="M30.13,17V5A4.5,4.5,0,0,0,25.63.5h-21A4.49,4.49,0,0,0,.13,5V17a4.49,4.49,0,0,0,4.5,4.5h21A4.5,4.5,0,0,0,30.13,17Z"/><path class="cls-2" d="M8.26,5.28a.48.48,0,0,1,.48.48v.8A.48.48,0,0,1,8.26,7a.49.49,0,0,1-.48-.48v-.8A.49.49,0,0,1,8.26,5.28Zm-.12,9.77a.48.48,0,0,1,.48.48v.65a.47.47,0,0,1-.48.48.48.48,0,0,1-.48-.48v-.65A.49.49,0,0,1,8.14,15.05Zm1-2A1.19,1.19,0,0,0,9,12.51a1.07,1.07,0,0,0-.37-.4A3,3,0,0,0,8,11.77a10.88,10.88,0,0,1-1.4-.65,2.72,2.72,0,0,1-.95-.85A2.26,2.26,0,0,1,5.31,9a2.27,2.27,0,0,1,.36-1.29,2.41,2.41,0,0,1,1-.85,3.52,3.52,0,0,1,1.5-.3,3.69,3.69,0,0,1,1.18.19,2.68,2.68,0,0,1,.92.56A2.37,2.37,0,0,1,11,8.41a.77.77,0,0,1-.82.94H9.79a.75.75,0,0,1-.68-.61,1.09,1.09,0,0,0-.22-.43.88.88,0,0,0-.32-.26A1.12,1.12,0,0,0,8.15,8a1,1,0,0,0-.54.14.69.69,0,0,0-.31.36,1.18,1.18,0,0,0-.1.5,1.32,1.32,0,0,0,.1.51,1.23,1.23,0,0,0,.37.39,4,4,0,0,0,.7.37,10,10,0,0,1,1.39.67,2.81,2.81,0,0,1,1,.85,2.26,2.26,0,0,1,.34,1.3,2.25,2.25,0,0,1-.37,1.32,2.22,2.22,0,0,1-1,.83,3.78,3.78,0,0,1-1.52.29A4.46,4.46,0,0,1,7,15.35a3.18,3.18,0,0,1-1-.48A2.47,2.47,0,0,1,5.25,14a2.73,2.73,0,0,1-.16-.43.79.79,0,0,1,.84-.94h.23a.94.94,0,0,1,.82.7,1.08,1.08,0,0,0,.28.44,1.14,1.14,0,0,0,.41.24,1.49,1.49,0,0,0,.47.07,1.09,1.09,0,0,0,.57-.13A.85.85,0,0,0,9,13.58,1.09,1.09,0,0,0,9.15,13.07Z"/><path class="cls-2" d="M15.36,5.28a.48.48,0,0,1,.48.48v.8a.48.48,0,0,1-.48.48.49.49,0,0,1-.48-.48v-.8A.49.49,0,0,1,15.36,5.28Zm-.12,9.77a.49.49,0,0,1,.48.48v.65a.48.48,0,0,1-1,0v-.65A.49.49,0,0,1,15.24,15.05Zm1-2a1.33,1.33,0,0,0-.11-.56,1.16,1.16,0,0,0-.37-.4,3.19,3.19,0,0,0-.67-.34,11.73,11.73,0,0,1-1.41-.65,2.68,2.68,0,0,1-.94-.85A2.26,2.26,0,0,1,12.41,9a2.27,2.27,0,0,1,.36-1.29,2.35,2.35,0,0,1,1-.85,3.52,3.52,0,0,1,1.5-.3,3.69,3.69,0,0,1,1.18.19,2.63,2.63,0,0,1,.91.56,2.3,2.3,0,0,1,.6.88,2.41,2.41,0,0,1,.08.25.77.77,0,0,1-.82.94h-.34a.77.77,0,0,1-.69-.61A1.08,1.08,0,0,0,16,8.31a.83.83,0,0,0-.33-.26A1,1,0,0,0,15.25,8a1,1,0,0,0-.54.14.65.65,0,0,0-.31.36,1.18,1.18,0,0,0-.1.5,1.16,1.16,0,0,0,.1.51,1.23,1.23,0,0,0,.37.39,4.23,4.23,0,0,0,.69.37,10.18,10.18,0,0,1,1.4.67,2.68,2.68,0,0,1,.94.85,2.27,2.27,0,0,1,.35,1.3,2.25,2.25,0,0,1-.37,1.32,2.22,2.22,0,0,1-1,.83,3.82,3.82,0,0,1-1.52.29,4.46,4.46,0,0,1-1.14-.15,3.18,3.18,0,0,1-1-.48,2.37,2.37,0,0,1-.73-.89,2,2,0,0,1-.16-.43.79.79,0,0,1,.83-.94h.24a1,1,0,0,1,.82.7,1.08,1.08,0,0,0,.28.44,1.14,1.14,0,0,0,.41.24,1.49,1.49,0,0,0,.47.07,1.09,1.09,0,0,0,.57-.13.85.85,0,0,0,.33-.35A1.09,1.09,0,0,0,16.25,13.07Z"/><path class="cls-2" d="M22.46,5.28a.48.48,0,0,1,.48.48v.8a.48.48,0,0,1-.48.48A.49.49,0,0,1,22,6.56v-.8A.49.49,0,0,1,22.46,5.28Zm-.12,9.77a.49.49,0,0,1,.48.48v.65a.48.48,0,1,1-1,0v-.65A.49.49,0,0,1,22.34,15.05Zm1-2a1.33,1.33,0,0,0-.11-.56,1.16,1.16,0,0,0-.37-.4,3.19,3.19,0,0,0-.67-.34,11.73,11.73,0,0,1-1.41-.65,2.68,2.68,0,0,1-.94-.85A2.26,2.26,0,0,1,19.51,9a2.27,2.27,0,0,1,.36-1.29,2.35,2.35,0,0,1,1-.85,3.52,3.52,0,0,1,1.5-.3,3.69,3.69,0,0,1,1.18.19,2.63,2.63,0,0,1,.91.56,2.3,2.3,0,0,1,.6.88,2.41,2.41,0,0,1,.08.25.77.77,0,0,1-.82.94H24a.77.77,0,0,1-.69-.61,1.23,1.23,0,0,0-.21-.43.83.83,0,0,0-.33-.26A1,1,0,0,0,22.35,8a1,1,0,0,0-.54.14.65.65,0,0,0-.31.36,1.18,1.18,0,0,0-.1.5,1.16,1.16,0,0,0,.1.51,1.23,1.23,0,0,0,.37.39,4.23,4.23,0,0,0,.69.37,10.18,10.18,0,0,1,1.4.67,2.68,2.68,0,0,1,.94.85,2.27,2.27,0,0,1,.35,1.3,2.25,2.25,0,0,1-.37,1.32,2.22,2.22,0,0,1-1,.83,3.82,3.82,0,0,1-1.52.29,4.46,4.46,0,0,1-1.14-.15,3.18,3.18,0,0,1-1-.48,2.37,2.37,0,0,1-.73-.89,2,2,0,0,1-.16-.43.79.79,0,0,1,.83-.94h.24a1,1,0,0,1,.82.7,1.08,1.08,0,0,0,.28.44,1.14,1.14,0,0,0,.41.24,1.49,1.49,0,0,0,.47.07,1.09,1.09,0,0,0,.57-.13.85.85,0,0,0,.33-.35A1.09,1.09,0,0,0,23.35,13.07Z"/><path class="cls-3" d="M14.09,15.26h32a1,1,0,0,1,1,1V46.08a1,1,0,0,1-1,1h-32a1,1,0,0,1-1-1V16.26A1,1,0,0,1,14.09,15.26Z"/><path class="cls-2" d="M31,19.83h0a1.31,1.31,0,0,1,1.31,1.31h0A1.31,1.31,0,0,1,31,22.45h0a1.31,1.31,0,0,1-1.31-1.31h0A1.31,1.31,0,0,1,31,19.83Z"/><path class="cls-2" d="M41.45,19.83h0a1.3,1.3,0,0,1,1.31,1.31h0a1.31,1.31,0,0,1-1.31,1.31h0a1.31,1.31,0,0,1-1.31-1.31h0A1.31,1.31,0,0,1,41.45,19.83Z"/><path class="cls-2" d="M36.22,19.83h0a1.31,1.31,0,0,1,1.31,1.31h0a1.31,1.31,0,0,1-1.31,1.31h0a1.31,1.31,0,0,1-1.31-1.31h0A1.3,1.3,0,0,1,36.22,19.83Z"/><path class="cls-4" d="M12.09,20.21a4,4,0,0,1,4-4h28a4,4,0,0,1,4,4V44.5a4,4,0,0,1-4,4h-28a4,4,0,0,1-4-4Zm4-2a2,2,0,0,0-2,2v3.08l32-.1v-3a2,2,0,0,0-2-2Zm30,7-32,.1V44.5a2,2,0,0,0,2,2h28a2,2,0,0,0,2-2Z"/><path class="cls-4" d="M44,43.11a2,2,0,0,1-2,2v-9H36v7h6v2H36a2,2,0,0,1-2-2v-7a2,2,0,0,1,2-2h6a2,2,0,0,1,2,2Z"/><path class="cls-4" d="M44,30a2,2,0,0,1-2,2H36a2,2,0,0,1-2-2V28a1,1,0,0,1,2,0v2h6V28a1,1,0,1,1,2,0Z"/><path class="cls-5" d="M24.54,33.6a.66.66,0,0,1,.66.65v3.64a.67.67,0,0,1-.66.66H22.7a6.65,6.65,0,0,1-.33.84l1.33,1.39a.65.65,0,0,1,0,.9l-2.47,2.58a.65.65,0,0,1-.94,0L19,42.91a5.07,5.07,0,0,1-.77.34v1.21a.66.66,0,0,1-.66.65H15.48v-1.3h1.44V42.75a.65.65,0,0,1,.51-.63,4,4,0,0,0,1.3-.56l.05,0a.65.65,0,0,1,.81.11l1.17,1.23,1.57-1.64L21.11,40a.65.65,0,0,1-.1-.76,6.72,6.72,0,0,0,.58-1.47.64.64,0,0,1,.63-.49h1.67V34.9H22.22a.64.64,0,0,1-.63-.49A6.72,6.72,0,0,0,21,32.94a.64.64,0,0,1,.1-.75l1.22-1.28-1.57-1.64L19.59,30.5a.65.65,0,0,1-.81.11l-.05,0a3.81,3.81,0,0,0-1.3-.55.66.66,0,0,1-.51-.64V28.33H15.48V27h2.09a.66.66,0,0,1,.66.65v1.21a5.07,5.07,0,0,1,.77.34l1.29-1.35a.65.65,0,0,1,.94,0l2.47,2.58a.65.65,0,0,1,0,.9l-1.33,1.39a6.78,6.78,0,0,1,.33.85Z"/><path class="cls-5" d="M18.69,36.07a3.45,3.45,0,0,0-3.21-3.65v-1.3A4.75,4.75,0,0,1,20,36.07a4.75,4.75,0,0,1-4.51,5v-1.3A3.45,3.45,0,0,0,18.69,36.07Z"/></svg>