<svg width="49" height="49" viewBox="0 0 49 49" fill="none" xmlns="http://www.w3.org/2000/svg">
<g clip-path="url(#clip0_2890_124845)">
<path d="M20.625 17.0001V5.00006C20.625 2.51478 18.6103 0.500061 16.125 0.500061H5.125C2.63972 0.500061 0.625 2.51478 0.625 5.00006V17.0001C0.625 19.4853 2.63972 21.5001 5.125 21.5001H16.125C18.6103 21.5001 20.625 19.4853 20.625 17.0001Z" fill="#BDF4D0"/>
<path d="M10.8621 5.31006C11.1266 5.31006 11.3411 5.52449 11.3411 5.78901V6.58417C11.3411 6.84869 11.1266 7.06312 10.8621 7.06312C10.5976 7.06312 10.3832 6.84869 10.3832 6.58417V5.78901C10.3832 5.52449 10.5976 5.31006 10.8621 5.31006ZM10.7409 15.0805C11.0054 15.0805 11.2198 15.295 11.2198 15.5595V16.2111C11.2198 16.4756 11.0054 16.69 10.7409 16.69C10.4764 16.69 10.2619 16.4756 10.2619 16.2111V15.5595C10.2619 15.295 10.4764 15.0805 10.7409 15.0805ZM11.7533 13.1001C11.7533 12.8767 11.7149 12.6893 11.6381 12.5377C11.5654 12.3861 11.4441 12.2525 11.2744 12.1368C11.1046 12.0212 10.8803 11.9075 10.6014 11.7958C10.0679 11.5884 9.59907 11.373 9.1949 11.1496C8.79072 10.9222 8.47546 10.639 8.24912 10.3C8.02279 9.96096 7.90962 9.52618 7.90962 8.99568C7.90962 8.50107 8.03087 8.07228 8.27338 7.7093C8.51588 7.34233 8.85135 7.05913 9.27977 6.85969C9.71224 6.66026 10.2114 6.56054 10.7772 6.56054C11.2097 6.56054 11.6038 6.62436 11.9595 6.752C12.3151 6.87964 12.6203 7.06312 12.8749 7.30245C13.1336 7.54177 13.3316 7.83694 13.4691 8.18795C13.5013 8.2694 13.5298 8.35359 13.5545 8.44053C13.6976 8.94461 13.2504 9.3786 12.7264 9.3786H12.3941C12.0536 9.3786 11.7975 9.09596 11.7048 8.76832C11.6563 8.59281 11.5856 8.44922 11.4926 8.33753C11.3997 8.22186 11.2905 8.1361 11.1653 8.08026C11.044 8.02441 10.9066 7.99649 10.753 7.99649C10.5307 7.99649 10.3488 8.04236 10.2074 8.1341C10.0659 8.22186 9.96283 8.34152 9.89816 8.49309C9.83349 8.64467 9.80116 8.81419 9.80116 9.00166C9.80116 9.19312 9.83551 9.36065 9.90422 9.50424C9.97698 9.64784 10.0982 9.77947 10.268 9.89913C10.4377 10.0188 10.6701 10.1405 10.9652 10.2641C11.4906 10.4755 11.9554 10.6989 12.3596 10.9342C12.7638 11.1656 13.079 11.4508 13.3054 11.7898C13.5357 12.1249 13.6509 12.5576 13.6509 13.0881C13.6509 13.6067 13.5277 14.0474 13.2811 14.4104C13.0386 14.7734 12.6971 15.0506 12.2565 15.2421C11.82 15.4296 11.3148 15.5233 10.7409 15.5233C10.3569 15.5233 9.97698 15.4754 9.60109 15.3797C9.22925 15.28 8.88974 15.1184 8.58257 14.8951C8.2754 14.6717 8.03087 14.3745 7.84899 14.0036C7.78467 13.8724 7.73172 13.7307 7.69015 13.5786C7.55202 13.0731 8.00097 12.6394 8.52497 12.6394H8.76265C9.1554 12.6394 9.44169 12.9707 9.57684 13.3394C9.64959 13.5229 9.74458 13.6705 9.86179 13.7822C9.98304 13.8899 10.1184 13.9677 10.268 14.0155C10.4216 14.0634 10.5792 14.0873 10.7409 14.0873C10.9712 14.0873 11.1612 14.0435 11.3108 13.9557C11.4603 13.868 11.5714 13.7503 11.6442 13.6027C11.717 13.4511 11.7533 13.2836 11.7533 13.1001Z" fill="#333333"/>
<path d="M14.5889 15.2579H46.6249C47.1772 15.2579 47.6249 15.7056 47.6249 16.2579V46.0823C47.6249 46.6346 47.1772 47.0823 46.6249 47.0823H14.5889C14.0366 47.0823 13.5889 46.6346 13.5889 46.0823V16.2579C13.5889 15.7056 14.0366 15.2579 14.5889 15.2579Z" fill="url(#paint0_linear_2890_124845)"/>
<rect x="30.1709" y="19.8282" width="2.61818" height="2.61818" rx="1.30909" fill="#333333"/>
<rect x="40.6436" y="19.8282" width="2.61818" height="2.61818" rx="1.30909" fill="#333333"/>
<rect x="35.4072" y="19.8282" width="2.61818" height="2.61818" rx="1.30909" fill="#333333"/>
<path fill-rule="evenodd" clip-rule="evenodd" d="M12.5889 20.209C12.5889 17.9999 14.3797 16.209 16.5889 16.209H44.625C46.8341 16.209 48.625 17.9999 48.625 20.209V44.4999C48.625 46.7091 46.8341 48.4999 44.625 48.4999H16.5889C14.3797 48.4999 12.5889 46.7091 12.5889 44.4999L12.5889 20.209ZM16.5889 18.209C15.4843 18.209 14.5889 19.1045 14.5889 20.209L14.5889 23.2882L46.625 23.1938V20.209C46.625 19.1045 45.7296 18.209 44.625 18.209H16.5889ZM46.625 25.1938L14.5889 25.2883L14.5889 44.4999C14.5889 45.6045 15.4843 46.4999 16.5889 46.4999H44.625C45.7296 46.4999 46.625 45.6045 46.625 44.4999V25.1938Z" fill="#333333"/>
</g>
<defs>
<linearGradient id="paint0_linear_2890_124845" x1="29.4332" y1="47.84" x2="29.4332" y2="39.5051" gradientUnits="userSpaceOnUse">
<stop stop-color="#BDF4D0"/>
<stop offset="1" stop-color="#BDF4D0" stop-opacity="0"/>
</linearGradient>
<clipPath id="clip0_2890_124845">
<rect width="48.0005" height="47.9999" fill="white" transform="translate(0.625 0.500061)"/>
</clipPath>
</defs>
</svg>
